<svg xmlns="http://www.w3.org/2000/svg" version="1.1" xmlns:xlink="http://www.w3.org/1999/xlink" xmlns:svgjs="http://svgjs.dev/svgjs" width="128" height="128" viewBox="0 0 128 128"><g transform="matrix(0.8046875,0,0,0.8046875,12.221578124999994,13.043117570552866)"><svg viewBox="0 0 96 95" data-background-color="#ffffff" preserveAspectRatio="xMidYMid meet" height="126" width="128" xmlns="http://www.w3.org/2000/svg" xmlns:xlink="http://www.w3.org/1999/xlink"><g id="tight-bounds" transform="matrix(1,0,0,1,0.25950000000000273,0.24508324411135618)"><svg viewBox="0 0 95.48099999999998 94.5098335117773" height="94.5098335117773" width="95.48099999999998"><g><svg viewBox="0 0 95.48099999999998 94.5098335117773" height="94.5098335117773" width="95.48099999999998"><g><svg viewBox="0 0 95.48099999999998 94.5098335117773" height="94.5098335117773" width="95.48099999999998"><g id="textblocktransform"><svg viewBox="0 0 95.48099999999998 94.5098335117773" height="94.5098335117773" width="95.48099999999998" id="textblock"><g><svg viewBox="0 0 95.48099999999998 94.5098335117773" height="94.5098335117773" width="95.48099999999998"><g><svg viewBox="0 0 95.48099999999998 94.5098335117773" height="94.5098335117773" width="95.48099999999998"><g><svg xmlns="http://www.w3.org/2000/svg" xmlns:xlink="http://www.w3.org/1999/xlink" version="1.1" x="0" y="0" viewBox="0.7 0.875 46.699999999999996 46.225" enable-background="new 0 0 48 48" xml:space="preserve" height="94.5098335117773" width="95.48099999999998" class="icon-icon-0" data-fill-palette-color="accent" id="icon-0"></svg></g></svg></g></svg></g></svg></g></svg></g><g></g></svg></g><defs></defs><mask id="2c573c51-240c-4fc0-ae57-c9b87b7e668d"><g id="SvgjsG4052"><svg viewBox="0 0 95.48099999999998 94.5098335117773" height="94.5098335117773" width="95.48099999999998"><g><svg viewBox="0 0 95.48099999999998 94.5098335117773" height="94.5098335117773" width="95.48099999999998"><g><svg viewBox="0 0 95.48099999999998 94.5098335117773" height="94.5098335117773" width="95.48099999999998"><g id="SvgjsG4051"><svg viewBox="0 0 95.48099999999998 94.5098335117773" height="94.5098335117773" width="95.48099999999998" id="SvgjsSvg4050"><g><svg viewBox="0 0 95.48099999999998 94.5098335117773" height="94.5098335117773" width="95.48099999999998"><g><svg viewBox="0 0 95.48099999999998 94.5098335117773" height="94.5098335117773" width="95.48099999999998"><g><svg xmlns="http://www.w3.org/2000/svg" xmlns:xlink="http://www.w3.org/1999/xlink" version="1.1" x="0" y="0" viewBox="0.7 0.875 46.699999999999996 46.225" enable-background="new 0 0 48 48" xml:space="preserve" height="94.5098335117773" width="95.48099999999998" class="icon-icon-0" data-fill-palette-color="accent" id="SvgjsSvg4049"><g fill="white"><path fill="white" d="M28.9 7.5C29.6 6.8 30 5.8 30 4.8 30 3.7 29.6 2.8 28.9 2 27.4 0.5 24.9 0.5 23.4 2L13.1 12.4 11.7 19.2 18.5 17.8zM14.2 16.6L14.9 13.3 23.2 5.2 23.9 5.9 25.3 4.5 24.6 3.8 24.9 3.5C25.6 2.8 26.8 2.8 27.5 3.5 27.8 3.8 28 4.3 28 4.8S27.8 5.7 27.4 6L27.1 6.3 26.3 5.5 24.9 7 25.7 7.8 17.5 16z"></path><path fill="white" d="M31.5 20.6H5.4C5.1 20.6 4.9 20.7 4.7 20.9L0.7 24.9 2.1 26.3 5.7 22.6H31.5z"></path><path fill="white" d="M43.6 22.2V17.2C43.6 15 41.8 13.2 39.6 13.2S35.6 15 35.6 17.2V22.2C35.6 23.9 34.2 25.2 32.6 25.2H28.5C26 25.2 23.6 26.5 22.4 28.7L17.3 37.6C16.8 38.6 16.6 39.7 16.9 40.7S17.9 42.6 18.8 43.1C19.4 43.4 20.1 43.6 20.8 43.6 22.2 43.6 23.6 42.8 24.2 41.6L29 33.2H32.6C38.6 33.2 43.6 28.3 43.6 22.2M28.5 31.1C28.1 31.1 27.8 31.3 27.6 31.6L22.5 40.5C21.9 41.4 20.6 41.7 19.7 41.2 19.3 41 18.9 40.5 18.8 40S18.7 39 19 38.5L24.2 29.6C25.1 28.1 26.7 27.1 28.5 27.1H32.6C35.4 27.1 37.6 24.9 37.6 22.1V17.1C37.6 16 38.5 15.1 39.6 15.1S41.6 16 41.6 17.1V22.1C41.6 27 37.6 31.1 32.6 31.1z"></path><path fill="white" d="M45.4 17.7V34.7H32.4V36.7H38.4V45.1H36.4V47.1H42.4V45.1H40.4V36.7H46.4C46.9 36.7 47.4 36.2 47.4 35.7V17.7z"></path><path fill="white" d="M38.7 11.1C41.4 11.1 43.7 8.9 43.7 6.1S41.5 1.1 38.7 1.1 33.7 3.3 33.7 6.1 35.9 11.1 38.7 11.1M38.7 3.1C40.3 3.1 41.7 4.4 41.7 6.1S40.4 9.1 38.7 9.1 35.7 7.8 35.7 6.1 37 3.1 38.7 3.1"></path></g></svg></g></svg></g></svg></g></svg></g></svg></g><g></g></svg></g><defs><mask></mask></defs></svg><rect width="95.48099999999998" height="94.5098335117773" fill="black" stroke="none" visibility="hidden"></rect></g></mask><linearGradient x1="0.054" x2="0.941" y1="0.5" y2="0.5" id="3d430230-6914-4127-a07d-7881ce1cefbf"><stop stop-color="#0f3054" offset="0"></stop><stop stop-color="#3b8dcb" offset="0.498"></stop><stop stop-color="#0f3054" offset="1"></stop></linearGradient><rect width="95.48099999999998" height="94.5098335117773" fill="url(#3d430230-6914-4127-a07d-7881ce1cefbf)" mask="url(#2c573c51-240c-4fc0-ae57-c9b87b7e668d)" data-fill-palette-color="accent"></rect></svg><rect width="95.48099999999998" height="94.5098335117773" fill="none" stroke="none" visibility="hidden"></rect></g></svg></g></svg>